<?xml version="1.0"?>
<!-- Generated by SVGo -->
<svg width="1050" height="600"
     xmlns="http://www.w3.org/2000/svg"
     xmlns:xlink="http://www.w3.org/1999/xlink">
<rect x="95" y="36" width="21" height="3" fill="none" stroke="black" stroke-width="1" />
<text x="105" y="38" style="text-anchor:middle;font-size:7px;fill:black" >1</text>
<rect x="95" y="39" width="21" height="43" fill="none" stroke="black" stroke-width="1" />
<text x="105" y="67" style="text-anchor:middle;font-size:7px;fill:black" >2</text>
<rect x="95" y="82" width="21" height="29" fill="none" stroke="black" stroke-width="1" />
<text x="105" y="101" style="text-anchor:middle;font-size:7px;fill:black" >13</text>
<rect x="95" y="111" width="21" height="55" fill="none" stroke="black" stroke-width="1" />
<text x="105" y="147" style="text-anchor:middle;font-size:7px;fill:black" >15</text>
<rect x="95" y="166" width="21" height="35" fill="none" stroke="black" stroke-width="1" />
<text x="105" y="189" style="text-anchor:middle;font-size:7px;fill:black" >16</text>
<rect x="95" y="201" width="21" height="94" fill="none" stroke="black" stroke-width="1" />
<text x="105" y="263" style="text-anchor:middle;font-size:7px;fill:black" >18</text>
<rect x="95" y="295" width="21" height="70" fill="none" stroke="black" stroke-width="1" />
<text x="105" y="341" style="text-anchor:middle;font-size:7px;fill:black" >19</text>
<rect x="95" y="365" width="21" height="92" fill="none" stroke="black" stroke-width="1" />
<text x="105" y="426" style="text-anchor:middle;font-size:7px;fill:black" >23</text>
<rect x="95" y="457" width="21" height="14" fill="none" stroke="black" stroke-width="1" />
<text x="105" y="466" style="text-anchor:middle;font-size:7px;fill:black" >24</text>
<rect x="95" y="471" width="21" height="44" fill="none" stroke="black" stroke-width="1" />
<text x="105" y="500" style="text-anchor:middle;font-size:7px;fill:black" >25</text>
<text x="105" y="530" style="text-anchor:middle;font-size:7px;fill:black" >TZZK92</text>
<rect x="268" y="36" width="21" height="8" fill="none" stroke="black" stroke-width="1" />
<text x="278" y="41" style="text-anchor:middle;font-size:7px;fill:black" >1</text>
<rect x="268" y="44" width="21" height="12" fill="none" stroke="black" stroke-width="1" />
<text x="278" y="52" style="text-anchor:middle;font-size:7px;fill:black" >5</text>
<rect x="268" y="56" width="21" height="54" fill="none" stroke="black" stroke-width="1" />
<text x="278" y="92" style="text-anchor:middle;font-size:7px;fill:black" >13</text>
<rect x="268" y="110" width="21" height="18" fill="none" stroke="black" stroke-width="1" />
<text x="278" y="122" style="text-anchor:middle;font-size:7px;fill:black" >14</text>
<rect x="268" y="128" width="21" height="94" fill="none" stroke="black" stroke-width="1" />
<text x="278" y="190" style="text-anchor:middle;font-size:7px;fill:black" >15</text>
<rect x="268" y="222" width="21" height="78" fill="none" stroke="black" stroke-width="1" />
<text x="278" y="274" style="text-anchor:middle;font-size:7px;fill:black" >18</text>
<rect x="268" y="300" width="21" height="43" fill="none" stroke="black" stroke-width="1" />
<text x="278" y="328" style="text-anchor:middle;font-size:7px;fill:black" >19</text>
<rect x="268" y="343" width="21" height="65" fill="none" stroke="black" stroke-width="1" />
<text x="278" y="386" style="text-anchor:middle;font-size:7px;fill:black" >23</text>
<text x="278" y="423" style="text-anchor:middle;font-size:7px;fill:black" >TZJT31</text>
<rect x="387" y="35" width="21" height="13" fill="none" stroke="black" stroke-width="1" />
<text x="397" y="43" style="text-anchor:middle;font-size:7px;fill:black" >1</text>
<rect x="387" y="48" width="21" height="25" fill="none" stroke="black" stroke-width="1" />
<text x="397" y="64" style="text-anchor:middle;font-size:7px;fill:black" >2</text>
<rect x="387" y="73" width="21" height="48" fill="none" stroke="black" stroke-width="1" />
<text x="397" y="105" style="text-anchor:middle;font-size:7px;fill:black" >13</text>
<rect x="387" y="121" width="21" height="95" fill="none" stroke="black" stroke-width="1" />
<text x="397" y="184" style="text-anchor:middle;font-size:7px;fill:black" >15</text>
<rect x="387" y="216" width="21" height="74" fill="none" stroke="black" stroke-width="1" />
<text x="397" y="265" style="text-anchor:middle;font-size:7px;fill:black" >18</text>
<rect x="387" y="290" width="21" height="81" fill="none" stroke="black" stroke-width="1" />
<text x="397" y="344" style="text-anchor:middle;font-size:7px;fill:black" >19</text>
<rect x="387" y="371" width="21" height="95" fill="none" stroke="black" stroke-width="1" />
<text x="397" y="434" style="text-anchor:middle;font-size:7px;fill:black" >23</text>
<rect x="387" y="466" width="21" height="48" fill="none" stroke="black" stroke-width="1" />
<text x="397" y="498" style="text-anchor:middle;font-size:7px;fill:black" >24</text>
<text x="397" y="529" style="text-anchor:middle;font-size:7px;fill:black" >TZZK40</text>
<rect x="484" y="39" width="21" height="4" fill="none" stroke="black" stroke-width="1" />
<text x="494" y="41" style="text-anchor:middle;font-size:7px;fill:black" >1</text>
<rect x="484" y="43" width="21" height="16" fill="none" stroke="black" stroke-width="1" />
<text x="494" y="53" style="text-anchor:middle;font-size:7px;fill:black" >2</text>
<rect x="484" y="59" width="21" height="16" fill="none" stroke="black" stroke-width="1" />
<text x="494" y="69" style="text-anchor:middle;font-size:7px;fill:black" >3</text>
<rect x="484" y="75" width="21" height="57" fill="none" stroke="black" stroke-width="1" />
<text x="494" y="113" style="text-anchor:middle;font-size:7px;fill:black" >13</text>
<rect x="484" y="132" width="21" height="48" fill="none" stroke="black" stroke-width="1" />
<text x="494" y="164" style="text-anchor:middle;font-size:7px;fill:black" >15</text>
<rect x="484" y="180" width="21" height="21" fill="none" stroke="black" stroke-width="1" />
<text x="494" y="194" style="text-anchor:middle;font-size:7px;fill:black" >16</text>
<rect x="484" y="201" width="21" height="100" fill="none" stroke="black" stroke-width="1" />
<text x="494" y="267" style="text-anchor:middle;font-size:7px;fill:black" >18</text>
<rect x="484" y="301" width="21" height="38" fill="none" stroke="black" stroke-width="1" />
<text x="494" y="326" style="text-anchor:middle;font-size:7px;fill:black" >19</text>
<rect x="484" y="339" width="21" height="103" fill="none" stroke="black" stroke-width="1" />
<text x="494" y="407" style="text-anchor:middle;font-size:7px;fill:black" >23</text>
<text x="494" y="457" style="text-anchor:middle;font-size:7px;fill:black" >TZJT28</text>
<rect x="660" y="7" width="21" height="13" fill="none" stroke="black" stroke-width="1" />
<text x="670" y="15" style="text-anchor:middle;font-size:7px;fill:black" >1</text>
<rect x="660" y="20" width="21" height="35" fill="none" stroke="black" stroke-width="1" />
<text x="670" y="43" style="text-anchor:middle;font-size:7px;fill:black" >3</text>
<rect x="660" y="55" width="21" height="47" fill="none" stroke="black" stroke-width="1" />
<text x="670" y="86" style="text-anchor:middle;font-size:7px;fill:black" >13</text>
<rect x="660" y="102" width="21" height="23" fill="none" stroke="black" stroke-width="1" />
<text x="670" y="117" style="text-anchor:middle;font-size:7px;fill:black" >14</text>
<rect x="660" y="125" width="21" height="35" fill="none" stroke="black" stroke-width="1" />
<text x="670" y="148" style="text-anchor:middle;font-size:7px;fill:black" >16</text>
<rect x="660" y="160" width="21" height="120" fill="none" stroke="black" stroke-width="1" />
<text x="670" y="240" style="text-anchor:middle;font-size:7px;fill:black" >18</text>
<rect x="660" y="280" width="21" height="48" fill="none" stroke="black" stroke-width="1" />
<text x="670" y="312" style="text-anchor:middle;font-size:7px;fill:black" >19</text>
<rect x="660" y="328" width="21" height="100" fill="none" stroke="black" stroke-width="1" />
<text x="670" y="394" style="text-anchor:middle;font-size:7px;fill:black" >23</text>
<rect x="660" y="428" width="21" height="58" fill="none" stroke="black" stroke-width="1" />
<text x="670" y="466" style="text-anchor:middle;font-size:7px;fill:black" >26</text>
<text x="670" y="501" style="text-anchor:middle;font-size:7px;fill:black" >TZZK69</text>
<rect x="794" y="11" width="21" height="19" fill="none" stroke="black" stroke-width="1" />
<text x="804" y="23" style="text-anchor:middle;font-size:7px;fill:black" >1</text>
<rect x="794" y="30" width="21" height="34" fill="none" stroke="black" stroke-width="1" />
<text x="804" y="52" style="text-anchor:middle;font-size:7px;fill:black" >3</text>
<rect x="794" y="64" width="21" height="62" fill="none" stroke="black" stroke-width="1" />
<text x="804" y="105" style="text-anchor:middle;font-size:7px;fill:black" >13</text>
<rect x="794" y="126" width="21" height="62" fill="none" stroke="black" stroke-width="1" />
<text x="804" y="167" style="text-anchor:middle;font-size:7px;fill:black" >14</text>
<rect x="794" y="188" width="21" height="17" fill="none" stroke="black" stroke-width="1" />
<text x="804" y="199" style="text-anchor:middle;font-size:7px;fill:black" >16</text>
<rect x="794" y="205" width="21" height="66" fill="none" stroke="black" stroke-width="1" />
<text x="804" y="249" style="text-anchor:middle;font-size:7px;fill:black" >18</text>
<rect x="794" y="271" width="21" height="73" fill="none" stroke="black" stroke-width="1" />
<text x="804" y="319" style="text-anchor:middle;font-size:7px;fill:black" >19</text>
<rect x="794" y="344" width="21" height="146" fill="none" stroke="black" stroke-width="1" />
<text x="804" y="441" style="text-anchor:middle;font-size:7px;fill:black" >21</text>
<text x="804" y="505" style="text-anchor:middle;font-size:7px;fill:black" >TZZK70</text>
<rect x="935" y="8" width="21" height="11" fill="none" stroke="black" stroke-width="1" />
<text x="945" y="15" style="text-anchor:middle;font-size:7px;fill:black" >1</text>
<rect x="935" y="19" width="21" height="131" fill="none" stroke="black" stroke-width="1" />
<text x="945" y="106" style="text-anchor:middle;font-size:7px;fill:black" >3</text>
<rect x="935" y="150" width="21" height="76" fill="none" stroke="black" stroke-width="1" />
<text x="945" y="200" style="text-anchor:middle;font-size:7px;fill:black" >13</text>
<rect x="935" y="226" width="21" height="19" fill="none" stroke="black" stroke-width="1" />
<text x="945" y="238" style="text-anchor:middle;font-size:7px;fill:black" >15</text>
<rect x="935" y="245" width="21" height="50" fill="none" stroke="black" stroke-width="1" />
<text x="945" y="278" style="text-anchor:middle;font-size:7px;fill:black" >18</text>
<rect x="935" y="295" width="21" height="96" fill="none" stroke="black" stroke-width="1" />
<text x="945" y="359" style="text-anchor:middle;font-size:7px;fill:black" >19</text>
<rect x="935" y="391" width="21" height="96" fill="none" stroke="black" stroke-width="1" />
<text x="945" y="455" style="text-anchor:middle;font-size:7px;fill:black" >21</text>
<text x="945" y="502" style="text-anchor:middle;font-size:7px;fill:black" >TZZK72</text>
<line x1="115" y1="36" x2="268" y2="36" stroke-width="1" stroke="blue" />
<line x1="115" y1="39" x2="268" y2="44" stroke-width="1" stroke="blue" />
<line x1="115" y1="82" x2="268" y2="44" stroke-width="1" stroke="blue" />
<line x1="115" y1="82" x2="268" y2="56" stroke-width="1" stroke="blue" />
<line x1="115" y1="111" x2="268" y2="110" stroke-width="1" stroke="blue" />
<line x1="115" y1="111" x2="268" y2="128" stroke-width="1" stroke="blue" />
<line x1="115" y1="166" x2="268" y2="222" stroke-width="1" stroke="blue" />
<line x1="115" y1="201" x2="268" y2="222" stroke-width="1" stroke="blue" />
<line x1="115" y1="295" x2="268" y2="300" stroke-width="1" stroke="blue" />
<line x1="115" y1="365" x2="268" y2="343" stroke-width="1" stroke="blue" />
<line x1="115" y1="457" x2="268" y2="408" stroke-width="1" stroke="blue" />
<line x1="115" y1="471" x2="268" y2="408" stroke-width="1" stroke="blue" />
<line x1="115" y1="515" x2="268" y2="408" stroke-width="1" stroke="blue" />
<line x1="288" y1="36" x2="387" y2="35" stroke-width="1" stroke="blue" />
<line x1="288" y1="44" x2="387" y2="48" stroke-width="1" stroke="blue" />
<line x1="288" y1="44" x2="387" y2="73" stroke-width="1" stroke="blue" />
<line x1="288" y1="56" x2="387" y2="73" stroke-width="1" stroke="blue" />
<line x1="288" y1="110" x2="387" y2="121" stroke-width="1" stroke="blue" />
<line x1="288" y1="128" x2="387" y2="121" stroke-width="1" stroke="blue" />
<line x1="288" y1="222" x2="387" y2="216" stroke-width="1" stroke="blue" />
<line x1="288" y1="300" x2="387" y2="290" stroke-width="1" stroke="blue" />
<line x1="288" y1="343" x2="387" y2="371" stroke-width="1" stroke="blue" />
<line x1="288" y1="408" x2="387" y2="466" stroke-width="1" stroke="blue" />
<line x1="288" y1="408" x2="387" y2="514" stroke-width="1" stroke="blue" />
<line x1="407" y1="35" x2="484" y2="39" stroke-width="1" stroke="blue" />
<line x1="407" y1="48" x2="484" y2="43" stroke-width="1" stroke="blue" />
<line x1="407" y1="73" x2="484" y2="59" stroke-width="1" stroke="blue" />
<line x1="407" y1="73" x2="484" y2="75" stroke-width="1" stroke="blue" />
<line x1="407" y1="121" x2="484" y2="132" stroke-width="1" stroke="blue" />
<line x1="407" y1="216" x2="484" y2="180" stroke-width="1" stroke="blue" />
<line x1="407" y1="216" x2="484" y2="201" stroke-width="1" stroke="blue" />
<line x1="407" y1="290" x2="484" y2="301" stroke-width="1" stroke="blue" />
<line x1="407" y1="371" x2="484" y2="339" stroke-width="1" stroke="blue" />
<line x1="407" y1="466" x2="484" y2="442" stroke-width="1" stroke="blue" />
<line x1="407" y1="514" x2="484" y2="442" stroke-width="1" stroke="blue" />
<line x1="504" y1="39" x2="660" y2="7" stroke-width="1" stroke="blue" />
<line x1="504" y1="43" x2="660" y2="20" stroke-width="1" stroke="blue" />
<line x1="504" y1="59" x2="660" y2="20" stroke-width="1" stroke="blue" />
<line x1="504" y1="75" x2="660" y2="55" stroke-width="1" stroke="blue" />
<line x1="504" y1="132" x2="660" y2="102" stroke-width="1" stroke="blue" />
<line x1="504" y1="132" x2="660" y2="125" stroke-width="1" stroke="blue" />
<line x1="504" y1="180" x2="660" y2="125" stroke-width="1" stroke="blue" />
<line x1="504" y1="201" x2="660" y2="160" stroke-width="1" stroke="blue" />
<line x1="504" y1="301" x2="660" y2="280" stroke-width="1" stroke="blue" />
<line x1="504" y1="339" x2="660" y2="328" stroke-width="1" stroke="blue" />
<line x1="504" y1="442" x2="660" y2="428" stroke-width="1" stroke="blue" />
<line x1="504" y1="442" x2="660" y2="486" stroke-width="1" stroke="blue" />
<line x1="680" y1="7" x2="794" y2="11" stroke-width="1" stroke="blue" />
<line x1="680" y1="20" x2="794" y2="30" stroke-width="1" stroke="blue" />
<line x1="680" y1="55" x2="794" y2="64" stroke-width="1" stroke="blue" />
<line x1="680" y1="102" x2="794" y2="126" stroke-width="1" stroke="blue" />
<line x1="680" y1="125" x2="794" y2="188" stroke-width="1" stroke="blue" />
<line x1="680" y1="160" x2="794" y2="205" stroke-width="1" stroke="blue" />
<line x1="680" y1="280" x2="794" y2="271" stroke-width="1" stroke="blue" />
<line x1="680" y1="328" x2="794" y2="344" stroke-width="1" stroke="blue" />
<line x1="680" y1="328" x2="794" y2="490" stroke-width="1" stroke="blue" />
<line x1="680" y1="428" x2="794" y2="490" stroke-width="1" stroke="blue" />
<line x1="680" y1="486" x2="794" y2="490" stroke-width="1" stroke="blue" />
<line x1="814" y1="11" x2="935" y2="8" stroke-width="1" stroke="blue" />
<line x1="814" y1="30" x2="935" y2="19" stroke-width="1" stroke="blue" />
<line x1="814" y1="64" x2="935" y2="150" stroke-width="1" stroke="blue" />
<line x1="814" y1="126" x2="935" y2="226" stroke-width="1" stroke="blue" />
<line x1="814" y1="188" x2="935" y2="226" stroke-width="1" stroke="blue" />
<line x1="814" y1="188" x2="935" y2="245" stroke-width="1" stroke="blue" />
<line x1="814" y1="205" x2="935" y2="245" stroke-width="1" stroke="blue" />
<line x1="814" y1="271" x2="935" y2="295" stroke-width="1" stroke="blue" />
<line x1="814" y1="344" x2="935" y2="391" stroke-width="1" stroke="blue" />
<line x1="814" y1="490" x2="935" y2="487" stroke-width="1" stroke="blue" />
<line x1="814" y1="490" x2="935" y2="487" stroke-width="1" stroke="blue" />
</svg>
