<?xml version="1.0"?>
<!-- Generated by SVGo -->
<svg width="500" height="600"
     xmlns="http://www.w3.org/2000/svg"
     xmlns:xlink="http://www.w3.org/1999/xlink">
<rect x="45" y="40" width="10" height="8" fill="none" stroke="black" stroke-width="1" />
<text x="57" y="45" style="text-anchor:start;font-size:7px;fill:black" >1</text>
<rect x="45" y="48" width="10" height="8" fill="none" stroke="black" stroke-width="1" />
<text x="57" y="53" style="text-anchor:start;font-size:7px;fill:black" >3</text>
<rect x="45" y="56" width="10" height="46" fill="none" stroke="black" stroke-width="1" />
<text x="57" y="86" style="text-anchor:start;font-size:7px;fill:black" >13</text>
<rect x="45" y="102" width="10" height="14" fill="none" stroke="black" stroke-width="1" />
<text x="57" y="111" style="text-anchor:start;font-size:7px;fill:black" >14</text>
<rect x="45" y="116" width="10" height="33" fill="none" stroke="black" stroke-width="1" />
<text x="57" y="138" style="text-anchor:start;font-size:7px;fill:black" >15</text>
<rect x="45" y="149" width="10" height="60" fill="none" stroke="black" stroke-width="1" />
<text x="57" y="189" style="text-anchor:start;font-size:7px;fill:black" >18</text>
<rect x="45" y="209" width="10" height="46" fill="none" stroke="black" stroke-width="1" />
<text x="57" y="239" style="text-anchor:start;font-size:7px;fill:black" >20</text>
<rect x="45" y="255" width="10" height="46" fill="none" stroke="black" stroke-width="1" />
<text x="57" y="285" style="text-anchor:start;font-size:7px;fill:black" >23</text>
<rect x="45" y="301" width="10" height="40" fill="none" stroke="black" stroke-width="1" />
<text x="57" y="327" style="text-anchor:start;font-size:7px;fill:black" >26</text>
<text x="50" y="356" style="text-anchor:middle;font-size:7px;fill:black" >TZZK01</text>
<rect x="73" y="34" width="10" height="13" fill="none" stroke="black" stroke-width="1" />
<text x="85" y="42" style="text-anchor:start;font-size:7px;fill:black" >3</text>
<rect x="73" y="47" width="10" height="14" fill="none" stroke="black" stroke-width="1" />
<text x="85" y="56" style="text-anchor:start;font-size:7px;fill:black" >12</text>
<rect x="73" y="61" width="10" height="48" fill="none" stroke="black" stroke-width="1" />
<text x="85" y="93" style="text-anchor:start;font-size:7px;fill:black" >13</text>
<rect x="73" y="109" width="10" height="27" fill="none" stroke="black" stroke-width="1" />
<text x="85" y="127" style="text-anchor:start;font-size:7px;fill:black" >15</text>
<rect x="73" y="136" width="10" height="62" fill="none" stroke="black" stroke-width="1" />
<text x="85" y="177" style="text-anchor:start;font-size:7px;fill:black" >18</text>
<rect x="73" y="198" width="10" height="2" fill="none" stroke="black" stroke-width="1" />
<text x="85" y="199" style="text-anchor:start;font-size:7px;fill:black" >20</text>
<rect x="73" y="200" width="10" height="10" fill="none" stroke="black" stroke-width="1" />
<text x="85" y="206" style="text-anchor:start;font-size:7px;fill:black" >19</text>
<rect x="73" y="210" width="10" height="33" fill="none" stroke="black" stroke-width="1" />
<text x="85" y="232" style="text-anchor:start;font-size:7px;fill:black" >20</text>
<rect x="73" y="243" width="10" height="25" fill="none" stroke="black" stroke-width="1" />
<text x="85" y="259" style="text-anchor:start;font-size:7px;fill:black" >23</text>
<text x="78" y="283" style="text-anchor:middle;font-size:7px;fill:black" >virtual1</text>
<rect x="102" y="26" width="10" height="42" fill="none" stroke="black" stroke-width="1" />
<text x="114" y="54" style="text-anchor:start;font-size:7px;fill:black" >3</text>
<rect x="102" y="68" width="10" height="38" fill="none" stroke="black" stroke-width="1" />
<text x="114" y="93" style="text-anchor:start;font-size:7px;fill:black" >13</text>
<rect x="102" y="106" width="10" height="23" fill="none" stroke="black" stroke-width="1" />
<text x="114" y="121" style="text-anchor:start;font-size:7px;fill:black" >14</text>
<rect x="102" y="129" width="10" height="35" fill="none" stroke="black" stroke-width="1" />
<text x="114" y="152" style="text-anchor:start;font-size:7px;fill:black" >15</text>
<rect x="102" y="164" width="10" height="32" fill="none" stroke="black" stroke-width="1" />
<text x="114" y="185" style="text-anchor:start;font-size:7px;fill:black" >18</text>
<rect x="102" y="196" width="10" height="43" fill="none" stroke="black" stroke-width="1" />
<text x="114" y="224" style="text-anchor:start;font-size:7px;fill:black" >19</text>
<text x="107" y="254" style="text-anchor:middle;font-size:7px;fill:black" >virtual2</text>
<rect x="130" y="24" width="10" height="2" fill="none" stroke="black" stroke-width="1" />
<text x="142" y="25" style="text-anchor:start;font-size:7px;fill:black" >1</text>
<rect x="130" y="26" width="10" height="42" fill="none" stroke="black" stroke-width="1" />
<text x="142" y="54" style="text-anchor:start;font-size:7px;fill:black" >3</text>
<rect x="130" y="68" width="10" height="38" fill="none" stroke="black" stroke-width="1" />
<text x="142" y="93" style="text-anchor:start;font-size:7px;fill:black" >13</text>
<rect x="130" y="106" width="10" height="23" fill="none" stroke="black" stroke-width="1" />
<text x="142" y="121" style="text-anchor:start;font-size:7px;fill:black" >14</text>
<rect x="130" y="129" width="10" height="35" fill="none" stroke="black" stroke-width="1" />
<text x="142" y="152" style="text-anchor:start;font-size:7px;fill:black" >15</text>
<rect x="130" y="164" width="10" height="32" fill="none" stroke="black" stroke-width="1" />
<text x="142" y="185" style="text-anchor:start;font-size:7px;fill:black" >18</text>
<rect x="130" y="196" width="10" height="22" fill="none" stroke="black" stroke-width="1" />
<text x="142" y="210" style="text-anchor:start;font-size:7px;fill:black" >19</text>
<text x="135" y="233" style="text-anchor:middle;font-size:7px;fill:black" >virtual3</text>
<rect x="159" y="27" width="10" height="40" fill="none" stroke="black" stroke-width="1" />
<text x="171" y="53" style="text-anchor:start;font-size:7px;fill:black" >3</text>
<rect x="159" y="67" width="10" height="38" fill="none" stroke="black" stroke-width="1" />
<text x="171" y="92" style="text-anchor:start;font-size:7px;fill:black" >13</text>
<rect x="159" y="105" width="10" height="23" fill="none" stroke="black" stroke-width="1" />
<text x="171" y="120" style="text-anchor:start;font-size:7px;fill:black" >14</text>
<rect x="159" y="128" width="10" height="35" fill="none" stroke="black" stroke-width="1" />
<text x="171" y="151" style="text-anchor:start;font-size:7px;fill:black" >15</text>
<rect x="159" y="163" width="10" height="32" fill="none" stroke="black" stroke-width="1" />
<text x="171" y="184" style="text-anchor:start;font-size:7px;fill:black" >18</text>
<rect x="159" y="195" width="10" height="22" fill="none" stroke="black" stroke-width="1" />
<text x="171" y="209" style="text-anchor:start;font-size:7px;fill:black" >19</text>
<rect x="159" y="217" width="10" height="35" fill="none" stroke="black" stroke-width="1" />
<text x="171" y="240" style="text-anchor:start;font-size:7px;fill:black" >21</text>
<text x="164" y="267" style="text-anchor:middle;font-size:7px;fill:black" >virtual4</text>
<rect x="187" y="30" width="10" height="10" fill="none" stroke="black" stroke-width="1" />
<text x="199" y="36" style="text-anchor:start;font-size:7px;fill:black" >1</text>
<rect x="187" y="40" width="10" height="31" fill="none" stroke="black" stroke-width="1" />
<text x="199" y="60" style="text-anchor:start;font-size:7px;fill:black" >3</text>
<rect x="187" y="71" width="10" height="16" fill="none" stroke="black" stroke-width="1" />
<text x="199" y="81" style="text-anchor:start;font-size:7px;fill:black" >10</text>
<rect x="187" y="87" width="10" height="24" fill="none" stroke="black" stroke-width="1" />
<text x="199" y="103" style="text-anchor:start;font-size:7px;fill:black" >11</text>
<rect x="187" y="111" width="10" height="80" fill="none" stroke="black" stroke-width="1" />
<text x="199" y="164" style="text-anchor:start;font-size:7px;fill:black" >16</text>
<rect x="187" y="191" width="10" height="20" fill="none" stroke="black" stroke-width="1" />
<text x="199" y="204" style="text-anchor:start;font-size:7px;fill:black" >18</text>
<rect x="187" y="211" width="10" height="76" fill="none" stroke="black" stroke-width="1" />
<text x="199" y="261" style="text-anchor:start;font-size:7px;fill:black" >19</text>
<text x="192" y="302" style="text-anchor:middle;font-size:7px;fill:black" >virtual5</text>
<rect x="216" y="31" width="10" height="10" fill="none" stroke="black" stroke-width="1" />
<text x="228" y="37" style="text-anchor:start;font-size:7px;fill:black" >1</text>
<rect x="216" y="41" width="10" height="27" fill="none" stroke="black" stroke-width="1" />
<text x="228" y="59" style="text-anchor:start;font-size:7px;fill:black" >3</text>
<rect x="216" y="68" width="10" height="20" fill="none" stroke="black" stroke-width="1" />
<text x="228" y="81" style="text-anchor:start;font-size:7px;fill:black" >4</text>
<rect x="216" y="88" width="10" height="20" fill="none" stroke="black" stroke-width="1" />
<text x="228" y="101" style="text-anchor:start;font-size:7px;fill:black" >5</text>
<rect x="216" y="108" width="10" height="59" fill="none" stroke="black" stroke-width="1" />
<text x="228" y="147" style="text-anchor:start;font-size:7px;fill:black" >16</text>
<rect x="216" y="167" width="10" height="15" fill="none" stroke="black" stroke-width="1" />
<text x="228" y="177" style="text-anchor:start;font-size:7px;fill:black" >15</text>
<rect x="216" y="182" width="10" height="20" fill="none" stroke="black" stroke-width="1" />
<text x="228" y="195" style="text-anchor:start;font-size:7px;fill:black" >18</text>
<rect x="216" y="202" width="10" height="18" fill="none" stroke="black" stroke-width="1" />
<text x="228" y="214" style="text-anchor:start;font-size:7px;fill:black" >19</text>
<rect x="216" y="220" width="10" height="38" fill="none" stroke="black" stroke-width="1" />
<text x="228" y="245" style="text-anchor:start;font-size:7px;fill:black" >18</text>
<rect x="216" y="258" width="10" height="26" fill="none" stroke="black" stroke-width="1" />
<text x="228" y="275" style="text-anchor:start;font-size:7px;fill:black" >19</text>
<text x="221" y="299" style="text-anchor:middle;font-size:7px;fill:black" >virtual6</text>
<rect x="245" y="31" width="10" height="10" fill="none" stroke="black" stroke-width="1" />
<text x="257" y="37" style="text-anchor:start;font-size:7px;fill:black" >1</text>
<rect x="245" y="41" width="10" height="20" fill="none" stroke="black" stroke-width="1" />
<text x="257" y="54" style="text-anchor:start;font-size:7px;fill:black" >3</text>
<rect x="245" y="61" width="10" height="18" fill="none" stroke="black" stroke-width="1" />
<text x="257" y="73" style="text-anchor:start;font-size:7px;fill:black" >4</text>
<rect x="245" y="79" width="10" height="104" fill="none" stroke="black" stroke-width="1" />
<text x="257" y="148" style="text-anchor:start;font-size:7px;fill:black" >6</text>
<rect x="245" y="183" width="10" height="79" fill="none" stroke="black" stroke-width="1" />
<text x="257" y="235" style="text-anchor:start;font-size:7px;fill:black" >7</text>
<rect x="245" y="262" width="10" height="2" fill="none" stroke="black" stroke-width="1" />
<text x="257" y="263" style="text-anchor:start;font-size:7px;fill:black" >19</text>
<rect x="245" y="264" width="10" height="36" fill="none" stroke="black" stroke-width="1" />
<text x="257" y="288" style="text-anchor:start;font-size:7px;fill:black" >7</text>
<rect x="245" y="300" width="10" height="64" fill="none" stroke="black" stroke-width="1" />
<text x="257" y="342" style="text-anchor:start;font-size:7px;fill:black" >9</text>
<rect x="245" y="364" width="10" height="46" fill="none" stroke="black" stroke-width="1" />
<text x="257" y="394" style="text-anchor:start;font-size:7px;fill:black" >10</text>
<text x="250" y="425" style="text-anchor:middle;font-size:7px;fill:black" >virtual7</text>
<rect x="273" y="31" width="10" height="12" fill="none" stroke="black" stroke-width="1" />
<text x="285" y="39" style="text-anchor:start;font-size:7px;fill:black" >1</text>
<rect x="273" y="43" width="10" height="18" fill="none" stroke="black" stroke-width="1" />
<text x="285" y="55" style="text-anchor:start;font-size:7px;fill:black" >3</text>
<rect x="273" y="61" width="10" height="18" fill="none" stroke="black" stroke-width="1" />
<text x="285" y="73" style="text-anchor:start;font-size:7px;fill:black" >4</text>
<rect x="273" y="79" width="10" height="104" fill="none" stroke="black" stroke-width="1" />
<text x="285" y="148" style="text-anchor:start;font-size:7px;fill:black" >6</text>
<rect x="273" y="183" width="10" height="117" fill="none" stroke="black" stroke-width="1" />
<text x="285" y="261" style="text-anchor:start;font-size:7px;fill:black" >7</text>
<rect x="273" y="300" width="10" height="64" fill="none" stroke="black" stroke-width="1" />
<text x="285" y="342" style="text-anchor:start;font-size:7px;fill:black" >9</text>
<rect x="273" y="364" width="10" height="74" fill="none" stroke="black" stroke-width="1" />
<text x="285" y="413" style="text-anchor:start;font-size:7px;fill:black" >10</text>
<rect x="273" y="438" width="10" height="81" fill="none" stroke="black" stroke-width="1" />
<text x="285" y="492" style="text-anchor:start;font-size:7px;fill:black" >11</text>
<text x="278" y="534" style="text-anchor:middle;font-size:7px;fill:black" >virtual8</text>
<rect x="302" y="31" width="10" height="4" fill="none" stroke="black" stroke-width="1" />
<text x="314" y="33" style="text-anchor:start;font-size:7px;fill:black" >1</text>
<rect x="302" y="35" width="10" height="21" fill="none" stroke="black" stroke-width="1" />
<text x="314" y="49" style="text-anchor:start;font-size:7px;fill:black" >3</text>
<rect x="302" y="56" width="10" height="35" fill="none" stroke="black" stroke-width="1" />
<text x="314" y="79" style="text-anchor:start;font-size:7px;fill:black" >4</text>
<rect x="302" y="91" width="10" height="102" fill="none" stroke="black" stroke-width="1" />
<text x="314" y="159" style="text-anchor:start;font-size:7px;fill:black" >6</text>
<rect x="302" y="193" width="10" height="90" fill="none" stroke="black" stroke-width="1" />
<text x="314" y="253" style="text-anchor:start;font-size:7px;fill:black" >7</text>
<rect x="302" y="283" width="10" height="70" fill="none" stroke="black" stroke-width="1" />
<text x="314" y="329" style="text-anchor:start;font-size:7px;fill:black" >9</text>
<rect x="302" y="353" width="10" height="61" fill="none" stroke="black" stroke-width="1" />
<text x="314" y="393" style="text-anchor:start;font-size:7px;fill:black" >10</text>
<text x="307" y="429" style="text-anchor:middle;font-size:7px;fill:black" >virtual9</text>
<rect x="330" y="31" width="10" height="4" fill="none" stroke="black" stroke-width="1" />
<text x="342" y="33" style="text-anchor:start;font-size:7px;fill:black" >1</text>
<rect x="330" y="35" width="10" height="21" fill="none" stroke="black" stroke-width="1" />
<text x="342" y="49" style="text-anchor:start;font-size:7px;fill:black" >3</text>
<rect x="330" y="56" width="10" height="35" fill="none" stroke="black" stroke-width="1" />
<text x="342" y="79" style="text-anchor:start;font-size:7px;fill:black" >4</text>
<rect x="330" y="91" width="10" height="102" fill="none" stroke="black" stroke-width="1" />
<text x="342" y="159" style="text-anchor:start;font-size:7px;fill:black" >6</text>
<rect x="330" y="193" width="10" height="90" fill="none" stroke="black" stroke-width="1" />
<text x="342" y="253" style="text-anchor:start;font-size:7px;fill:black" >7</text>
<rect x="330" y="283" width="10" height="40" fill="none" stroke="black" stroke-width="1" />
<text x="342" y="309" style="text-anchor:start;font-size:7px;fill:black" >9</text>
<text x="335" y="338" style="text-anchor:middle;font-size:7px;fill:black" >TZZK02</text>
<rect x="359" y="32" width="10" height="2" fill="none" stroke="black" stroke-width="1" />
<text x="371" y="33" style="text-anchor:start;font-size:7px;fill:black" >1</text>
<rect x="359" y="34" width="10" height="21" fill="none" stroke="black" stroke-width="1" />
<text x="371" y="48" style="text-anchor:start;font-size:7px;fill:black" >3</text>
<rect x="359" y="55" width="10" height="35" fill="none" stroke="black" stroke-width="1" />
<text x="371" y="78" style="text-anchor:start;font-size:7px;fill:black" >4</text>
<rect x="359" y="90" width="10" height="102" fill="none" stroke="black" stroke-width="1" />
<text x="371" y="158" style="text-anchor:start;font-size:7px;fill:black" >6</text>
<rect x="359" y="192" width="10" height="90" fill="none" stroke="black" stroke-width="1" />
<text x="371" y="252" style="text-anchor:start;font-size:7px;fill:black" >7</text>
<rect x="359" y="282" width="10" height="17" fill="none" stroke="black" stroke-width="1" />
<text x="371" y="293" style="text-anchor:start;font-size:7px;fill:black" >9</text>
<text x="364" y="314" style="text-anchor:middle;font-size:7px;fill:black" >virtual11</text>
<rect x="387" y="30" width="10" height="18" fill="none" stroke="black" stroke-width="1" />
<text x="399" y="42" style="text-anchor:start;font-size:7px;fill:black" >1</text>
<rect x="387" y="48" width="10" height="12" fill="none" stroke="black" stroke-width="1" />
<text x="399" y="56" style="text-anchor:start;font-size:7px;fill:black" >3</text>
<rect x="387" y="60" width="10" height="49" fill="none" stroke="black" stroke-width="1" />
<text x="399" y="92" style="text-anchor:start;font-size:7px;fill:black" >4</text>
<rect x="387" y="109" width="10" height="67" fill="none" stroke="black" stroke-width="1" />
<text x="399" y="153" style="text-anchor:start;font-size:7px;fill:black" >6</text>
<rect x="387" y="176" width="10" height="93" fill="none" stroke="black" stroke-width="1" />
<text x="399" y="238" style="text-anchor:start;font-size:7px;fill:black" >7</text>
<rect x="387" y="269" width="10" height="35" fill="none" stroke="black" stroke-width="1" />
<text x="399" y="292" style="text-anchor:start;font-size:7px;fill:black" >9</text>
<text x="392" y="319" style="text-anchor:middle;font-size:7px;fill:black" >virtual12</text>
<rect x="416" y="29" width="10" height="10" fill="none" stroke="black" stroke-width="1" />
<text x="428" y="35" style="text-anchor:start;font-size:7px;fill:black" >1</text>
<rect x="416" y="39" width="10" height="12" fill="none" stroke="black" stroke-width="1" />
<text x="428" y="47" style="text-anchor:start;font-size:7px;fill:black" >3</text>
<rect x="416" y="51" width="10" height="49" fill="none" stroke="black" stroke-width="1" />
<text x="428" y="83" style="text-anchor:start;font-size:7px;fill:black" >4</text>
<rect x="416" y="100" width="10" height="67" fill="none" stroke="black" stroke-width="1" />
<text x="428" y="144" style="text-anchor:start;font-size:7px;fill:black" >6</text>
<rect x="416" y="167" width="10" height="93" fill="none" stroke="black" stroke-width="1" />
<text x="428" y="229" style="text-anchor:start;font-size:7px;fill:black" >7</text>
<rect x="416" y="260" width="10" height="29" fill="none" stroke="black" stroke-width="1" />
<text x="428" y="279" style="text-anchor:start;font-size:7px;fill:black" >9</text>
<text x="421" y="304" style="text-anchor:middle;font-size:7px;fill:black" >virtual13</text>
<rect x="445" y="30" width="10" height="0" fill="none" stroke="black" stroke-width="1" />
<text x="457" y="30" style="text-anchor:start;font-size:7px;fill:black" >1</text>
<rect x="445" y="30" width="10" height="0" fill="none" stroke="black" stroke-width="1" />
<text x="457" y="30" style="text-anchor:start;font-size:7px;fill:black" >3</text>
<rect x="445" y="30" width="10" height="18" fill="none" stroke="black" stroke-width="1" />
<text x="457" y="42" style="text-anchor:start;font-size:7px;fill:black" >1</text>
<rect x="445" y="48" width="10" height="13" fill="none" stroke="black" stroke-width="1" />
<text x="457" y="56" style="text-anchor:start;font-size:7px;fill:black" >3</text>
<rect x="445" y="61" width="10" height="46" fill="none" stroke="black" stroke-width="1" />
<text x="457" y="91" style="text-anchor:start;font-size:7px;fill:black" >4</text>
<rect x="445" y="107" width="10" height="91" fill="none" stroke="black" stroke-width="1" />
<text x="457" y="167" style="text-anchor:start;font-size:7px;fill:black" >6</text>
<rect x="445" y="198" width="10" height="42" fill="none" stroke="black" stroke-width="1" />
<text x="457" y="226" style="text-anchor:start;font-size:7px;fill:black" >7</text>
<rect x="445" y="240" width="10" height="71" fill="none" stroke="black" stroke-width="1" />
<text x="457" y="287" style="text-anchor:start;font-size:7px;fill:black" >9</text>
<text x="450" y="326" style="text-anchor:middle;font-size:7px;fill:black" >virtual14</text>
</svg>
