<?xml version="1.0"?>
<!-- Generated by SVGo -->
<svg width="500" height="500"
     xmlns="http://www.w3.org/2000/svg"
     xmlns:xlink="http://www.w3.org/1999/xlink">
<rect x="45" y="23" width="10" height="10" fill="none" stroke="black" stroke-width="1" />
<text x="60" y="29" style="text-anchor:start;font-size:7px;fill:black" >1</text>
<rect x="45" y="33" width="10" height="12" fill="none" stroke="black" stroke-width="1" />
<text x="60" y="41" style="text-anchor:start;font-size:7px;fill:black" >3</text>
<rect x="45" y="45" width="10" height="64" fill="none" stroke="black" stroke-width="1" />
<text x="60" y="87" style="text-anchor:start;font-size:7px;fill:black" >13</text>
<rect x="45" y="109" width="10" height="10" fill="none" stroke="black" stroke-width="1" />
<text x="60" y="115" style="text-anchor:start;font-size:7px;fill:black" >14</text>
<rect x="45" y="119" width="10" height="46" fill="none" stroke="black" stroke-width="1" />
<text x="60" y="149" style="text-anchor:start;font-size:7px;fill:black" >15</text>
<rect x="45" y="165" width="10" height="83" fill="none" stroke="black" stroke-width="1" />
<text x="60" y="220" style="text-anchor:start;font-size:7px;fill:black" >18</text>
<rect x="45" y="248" width="10" height="64" fill="none" stroke="black" stroke-width="1" />
<text x="60" y="290" style="text-anchor:start;font-size:7px;fill:black" >20</text>
<rect x="45" y="312" width="10" height="64" fill="none" stroke="black" stroke-width="1" />
<text x="60" y="354" style="text-anchor:start;font-size:7px;fill:black" >23</text>
<rect x="45" y="376" width="10" height="56" fill="none" stroke="black" stroke-width="1" />
<text x="60" y="413" style="text-anchor:start;font-size:7px;fill:black" >26</text>
<text x="50" y="447" style="text-anchor:middle;font-size:7px;fill:black" >TZZK01</text>
<rect x="357" y="10" width="10" height="6" fill="none" stroke="black" stroke-width="1" />
<text x="372" y="14" style="text-anchor:start;font-size:7px;fill:black" >1</text>
<rect x="357" y="16" width="10" height="28" fill="none" stroke="black" stroke-width="1" />
<text x="372" y="34" style="text-anchor:start;font-size:7px;fill:black" >3</text>
<rect x="357" y="44" width="10" height="48" fill="none" stroke="black" stroke-width="1" />
<text x="372" y="76" style="text-anchor:start;font-size:7px;fill:black" >4</text>
<rect x="357" y="92" width="10" height="140" fill="none" stroke="black" stroke-width="1" />
<text x="372" y="185" style="text-anchor:start;font-size:7px;fill:black" >6</text>
<rect x="357" y="232" width="10" height="124" fill="none" stroke="black" stroke-width="1" />
<text x="372" y="314" style="text-anchor:start;font-size:7px;fill:black" >7</text>
<rect x="357" y="356" width="10" height="56" fill="none" stroke="black" stroke-width="1" />
<text x="372" y="393" style="text-anchor:start;font-size:7px;fill:black" >9</text>
<text x="362" y="427" style="text-anchor:middle;font-size:7px;fill:black" >TZZK02</text>
<rect x="445" y="7" width="10" height="15" fill="none" stroke="black" stroke-width="1" />
<text x="460" y="17" style="text-anchor:start;font-size:7px;fill:black" >1</text>
<rect x="445" y="22" width="10" height="16" fill="none" stroke="black" stroke-width="1" />
<text x="460" y="32" style="text-anchor:start;font-size:7px;fill:black" >3</text>
<rect x="445" y="38" width="10" height="68" fill="none" stroke="black" stroke-width="1" />
<text x="460" y="83" style="text-anchor:start;font-size:7px;fill:black" >4</text>
<rect x="445" y="106" width="10" height="92" fill="none" stroke="black" stroke-width="1" />
<text x="460" y="167" style="text-anchor:start;font-size:7px;fill:black" >6</text>
<rect x="445" y="198" width="10" height="128" fill="none" stroke="black" stroke-width="1" />
<text x="460" y="283" style="text-anchor:start;font-size:7px;fill:black" >7</text>
<rect x="445" y="326" width="10" height="80" fill="none" stroke="black" stroke-width="1" />
<text x="460" y="379" style="text-anchor:start;font-size:7px;fill:black" >9</text>
<text x="450" y="421" style="text-anchor:middle;font-size:7px;fill:black" >TZZK03</text>
</svg>
